<svg xmlns="http://www.w3.org/2000/svg" viewBox="0 0 700 900" width="700" height="900" xmlns:c2pa="http://c2pa.org/manifest"><metadata><c2pa:manifest>AAAWgmp1bWIAAAAeanVtZGMycGEAEQAQgAAAqgA4m3EDYzJwYQAAABZcanVtYgAAAEdqdW1kYzJtYQARABCAAACqADibcQN1cm46YzJwYToyYjExMTM1Yy1iZGQxLTQ1ODUtODE2Ni1jYmY2M2ZhMTU3N2QAAAADl2p1bWIAAAApanVtZGMyYXMAEQAQgAAAqgA4m3EDYzJwYS5hc3NlcnRpb25zAAAAALxqdW1iAAAARGp1bWRjYm9yABEAEIAAAKoAOJtxE2MycGEuaW5ncmVkaWVudC52MwAAAAAYYzJzaMgf608sWXJ4NfPARrF2gAAAAABwY2JvcqNpZGM6Zm9ybWF0bWltYWdlL3N2Zyt4bWxqaW5zdGFuY2VJRHgseG1wOmlpZDo4NTdjNDNlMy02YzI1LTRkYTgtYWYyZC02YTg5YmZiNDQ3NmZscmVsYXRpb25zaGlwaHBhcmVudE9mAAAB4mp1bWIAAABBanVtZGNib3IAEQAQgAAAqgA4m3ETYzJwYS5hY3Rpb25zLnYyAAAAABhjMnNoNezrQ5jfIt7ze6EVVNtMNAAAAZljYm9yomdhY3Rpb25zgqJmYWN0aW9ua2MycGEub3BlbmVkanBhcmFtZXRlcnOha2luZ3JlZGllbnRzgaJjdXJseC1zZWxmI2p1bWJmPWMycGEuYXNzZXJ0aW9ucy9jMnBhLmluZ3JlZGllbnQudjNkaGFzaFgg1YZK18jA0v0Ad2M2WordoW+9EItZTqYNyzz89hDGk+mkZmFjdGlvbngdY29tLmFudGhyb3BpYy5jbGF1ZGUucHJvdmlkZWRqcGFyYW1ldGVyc6F4H2NvbS5hbnRocm9waWMub3JpZ2luLWNvbmZpZGVuY2VndW5rbm93bmtkZXNjcmlwdGlvbnhmQ2xhdWRlIHByb3ZpZGVkIHRoaXMgZmlsZSBhdCB0aGUgcmVxdWVzdCBvZiBhIHVzZXIgYW5kIG1heSBoYXZlIGNyZWF0ZWQgb3IgbW9kaWZpZWQgdGhlIGZpbGUgY29udGVudHMubXNvZnR3YXJlQWdlbnShZG5hbWVmQ2xhdWRlcmFsbEFjdGlvbnNJbmNsdWRlZPUAAADIanVtYgAAAEBqdW1kY2JvcgARABCAAACqADibcRNjMnBhLmhhc2guZGF0YQAAAAAYYzJzaMbtAods6WbG3qblbeTEaxsAAACAY2JvcqVjYWxnZnNoYTI1NmNwYWRNAAAAAAAAAAAAAAAAAGRoYXNoWCD86ThDwEwU99PZVH4xzcF6HamgebUr3FTgvlsTyuD0WGRuYW1lbmp1bWJmIG1hbmlmZXN0amV4Y2x1c2lvbnOBomVzdGFydBiWZmxlbmd0aBkeBAAAAj5qdW1iAAAAJ2p1bWRjMmNsABEAEIAAAKoAOJtxA2MycGEuY2xhaW0udjIAAAACD2Nib3KlY2FsZ2ZzaGEyNTZpc2lnbmF0dXJleE1zZWxmI2p1bWJmPS9jMnBhL3VybjpjMnBhOjJiMTExMzVjLWJkZDEtNDU4NS04MTY2LWNiZjYzZmExNTc3ZC9jMnBhLnNpZ25hdHVyZWppbnN0YW5jZUlEeCx4bXA6aWlkOjk0Y2UyZTlmLWJiMjItNDUxOS04YmViLWZhMDYyNjhjNTQ5NnJjcmVhdGVkX2Fzc2VydGlvbnODomN1cmx4LXNlbGYjanVtYmY9YzJwYS5hc3NlcnRpb25zL2MycGEuaW5ncmVkaWVudC52M2RoYXNoWCDVhkrXyMDS/QB3YzZait2hb70Qi1lOpg3LPPz2EMaT6aJjdXJseCpzZWxmI2p1bWJmPWMycGEuYXNzZXJ0aW9ucy9jMnBhLmFjdGlvbnMudjJkaGFzaFggKC2mjllNDKXGSrT5gZj9Sb6UIQp32XJ3Hjz81Mva43GiY3VybHgpc2VsZiNqdW1iZj1jMnBhLmFzc2VydGlvbnMvYzJwYS5oYXNoLmRhdGFkaGFzaFggndKYQffS/2i8rS+3SOt3onpOQxlQ7i1+bg5ai4Vhi+50Y2xhaW1fZ2VuZXJhdG9yX2luZm+jZG5hbWVvQW50aHJvcGljIEZpbGVzZ3ZlcnNpb25lMS4wLjBrc3BlY1ZlcnNpb25lMi40LjAAABA4anVtYgAAAChqdW1kYzJjcwARABCAAACqADibcQNjMnBhLnNpZ25hdHVyZQAAABAIY2JvctKEWQISogEmGCFZAgowggIGMIIBjaADAgECAhRA5aAK7sI50L64g/oGQgU9Z1UTADAKBggqhkjOPQQDAzBJMRcwFQYDVQQKEw5BbnRocm9waWMsIFBCQzEuMCwGA1UEAxMlQW50aHJvcGljIENvbnRlbnQgQ3JlZGVudGlhbHMgUm9vdCBDQTAeFw0yNjA4MDcxODQzNTZaFw0yODA4MDYxOTQzNTZaMEQxFzAVBgNVBAoTDkFudGhyb3BpYywgUEJDMSkwJwYDVQQDEyBBbnRocm9waWMgQ2xhdWRlIENvbnRlbnQgU2lnbmluZzBZMBMGByqGSM49AgEGCCqGSM49AwEHA0IABJh6CmvLUBgFFNU0vUKlOVtE6djd17L5SuwX0LemFisBM3dkd/3cyjxFA3Qo5S46fX0/ihY0VZ7mfb9KF703t5OjWDBWMA4GA1UdDwEB/wQEAwIHgDAVBgNVHSUEDjAMBgorBgEEAYPoXgIBMAwGA1UdEwEB/wQCMAAwHwYDVR0jBBgwFoAUzlHiBIFOZFsj+OPEz5o+nMHXXMIwCgYIKoZIzj0EAwMDZwAwZAIwMXMdFJ4BetLLVY7ORuE9noqbbAZOZn/aArXyTwFAZfKrPzxF2vPoJNf1+UCdg1XGAjBwX1zd9WGqYkqmL5SFqw1QySjr1zJfpJM9+1rdDwSPLMOPOjKuiXjoU/pUUeG9RwmhY3BhZFkNngAAAAAAAAAAAAAAAAAAAAAAAAAAAAAAAAAAAAAAAAAAAAAAAAAAAAAAAAAAAAAAAAAAAAAAAAAAAAAAAAAAAAAAAAAAAAAAAAAAAAAAAAAAAAAAAAAAAAAAAAAAAAAAAAAAAAAAAAAAAAAAAAAAAAAAAAAAAAAAAAAAAAAAAAAAAAAAAAAAAAAAAAAAAAAAAAAAAAAAAAAAAAAAAAAAAAAAAAAAAAAAAAAAAAAAAAAAAAAAAAAAAAAAAAAAAAAAAAAAAAAAAAAAAAAAAAAAAAAAAAAAAAAAAAAAAAAAAAAAAAAAAAAAAAAAAAAAAAAAAAAAAAAAAAAAAAAAAAAAAAAAAAAAAAAAAAAAAAAAAAAAAAAAAAAAAAAAAAAAAAAAAAAAAAAAAAAAAAAAAAAAAAAAAAAAAAAAAAAAAAAAAAAAAAAAAAAAAAAAAAAAAAAAAAAAAAAAAAAAAAAAAAAAAAAAAAAAAAAAAAAAAAAAAAAAAAAAAAAAAAAAAAAAAAAAAAAAAAAAAAAAAAAAAAAAAAAAAAAAAAAAAAAAAAAAAAAAAAAAAAAAAAAAAAAAAAAAAAAAAAAAAAAAAAAAAAAAAAAAAAAAAAAAAAAAAAAAAAAAAAAAAAAAAAAAAAAAAAAAAAAAAAAAAAAAAAAAAAAAAAAAAAAAAAAAAAAAAAAAAAAAAAAAAAAAAAAAAAAAAAAAAAAAAAAAAAAAAAAAAAAAAAAAAAAAAAAAAAAAAAAAAAAAAAAAAAAAAAAAAAAAAAAAAAAAAAAAAAAAAAAAAAAAAAAAAAAAAAAAAAAAAAAAAAAAAAAAAAAAAAAAAAAAAAAAAAAAAAAAAAAAAAAAAAAAAAAAAAAAAAAAAAAAAAAAAAAAAAAAAAAAAAAAAAAAAAAAAAAAAAAAAAAAAAAAAAAAAAAAAAAAAAAAAAAAAAAAAAAAAAAAAAAAAAAAAAAAAAAAAAAAAAAAAAAAAAAAAAAAAAAAAAAAAAAAAAAAAAAAAAAAAAAAAAAAAAAAAAAAAAAAAAAAAAAAAAAAAAAAAAAAAAAAAAAAAAAAAAAAAAAAAAAAAAAAAAAAAAAAAAAAAAAAAAAAAAAAAAAAAAAAAAAAAAAAAAAAAAAAAAAAAAAAAAAAAAAAAAAAAAAAAAAAAAAAAAAAAAAAAAAAAAAAAAAAAAAAAAAAAAAAAAAAAAAAAAAAAAAAAAAAAAAAAAAAAAAAAAAAAAAAAAAAAAAAAAAAAAAAAAAAAAAAAAAAAAAAAAAAAAAAAAAAAAAAAAAAAAAAAAAAAAAAAAAAAAAAAAAAAAAAAAAAAAAAAAAAAAAAAAAAAAAAAAAAAAAAAAAAAAAAAAAAAAAAAAAAAAAAAAAAAAAAAAAAAAAAAAAAAAAAAAAAAAAAAAAAAAAAAAAAAAAAAAAAAAAAAAAAAAAAAAAAAAAAAAAAAAAAAAAAAAAAAAAAAAAAAAAAAAAAAAAAAAAAAAAAAAAAAAAAAAAAAAAAAAAAAAAAAAAAAAAAAAAAAAAAAAAAAAAAAAAAAAAAAAAAAAAAAAAAAAAAAAAAAAAAAAAAAAAAAAAAAAAAAAAAAAAAAAAAAAAAAAAAAAAAAAAAAAAAAAAAAAAAAAAAAAAAAAAAAAAAAAAAAAAAAAAAAAAAAAAAAAAAAAAAAAAAAAAAAAAAAAAAAAAAAAAAAAAAAAAAAAAAAAAAAAAAAAAAAAAAAAAAAAAAAAAAAAAAAAAAAAAAAAAAAAAAAAAAAAAAAAAAAAAAAAAAAAAAAAAAAAAAAAAAAAAAAAAAAAAAAAAAAAAAAAAAAAAAAAAAAAAAAAAAAAAAAAAAAAAAAAAAAAAAAAAAAAAAAAAAAAAAAAAAAAAAAAAAAAAAAAAAAAAAAAAAAAAAAAAAAAAAAAAAAAAAAAAAAAAAAAAAAAAAAAAAAAAAAAAAAAAAAAAAAAAAAAAAAAAAAAAAAAAAAAAAAAAAAAAAAAAAAAAAAAAAAAAAAAAAAAAAAAAAAAAAAAAAAAAAAAAAAAAAAAAAAAAAAAAAAAAAAAAAAAAAAAAAAAAAAAAAAAAAAAAAAAAAAAAAAAAAAAAAAAAAAAAAAAAAAAAAAAAAAAAAAAAAAAAAAAAAAAAAAAAAAAAAAAAAAAAAAAAAAAAAAAAAAAAAAAAAAAAAAAAAAAAAAAAAAAAAAAAAAAAAAAAAAAAAAAAAAAAAAAAAAAAAAAAAAAAAAAAAAAAAAAAAAAAAAAAAAAAAAAAAAAAAAAAAAAAAAAAAAAAAAAAAAAAAAAAAAAAAAAAAAAAAAAAAAAAAAAAAAAAAAAAAAAAAAAAAAAAAAAAAAAAAAAAAAAAAAAAAAAAAAAAAAAAAAAAAAAAAAAAAAAAAAAAAAAAAAAAAAAAAAAAAAAAAAAAAAAAAAAAAAAAAAAAAAAAAAAAAAAAAAAAAAAAAAAAAAAAAAAAAAAAAAAAAAAAAAAAAAAAAAAAAAAAAAAAAAAAAAAAAAAAAAAAAAAAAAAAAAAAAAAAAAAAAAAAAAAAAAAAAAAAAAAAAAAAAAAAAAAAAAAAAAAAAAAAAAAAAAAAAAAAAAAAAAAAAAAAAAAAAAAAAAAAAAAAAAAAAAAAAAAAAAAAAAAAAAAAAAAAAAAAAAAAAAAAAAAAAAAAAAAAAAAAAAAAAAAAAAAAAAAAAAAAAAAAAAAAAAAAAAAAAAAAAAAAAAAAAAAAAAAAAAAAAAAAAAAAAAAAAAAAAAAAAAAAAAAAAAAAAAAAAAAAAAAAAAAAAAAAAAAAAAAAAAAAAAAAAAAAAAAAAAAAAAAAAAAAAAAAAAAAAAAAAAAAAAAAAAAAAAAAAAAAAAAAAAAAAAAAAAAAAAAAAAAAAAAAAAAAAAAAAAAAAAAAAAAAAAAAAAAAAAAAAAAAAAAAAAAAAAAAAAAAAAAAAAAAAAAAAAAAAAAAAAAAAAAAAAAAAAAAAAAAAAAAAAAAAAAAAAAAAAAAAAAAAAAAAAAAAAAAAAAAAAAAAAAAAAAAAAAAAAAAAAAAAAAAAAAAAAAAAAAAAAAAAAAAAAAAAAAAAAAAAAAAAAAAAAAAAAAAAAAAAAAAAAAAAAAAAAAAAAAAAAAAAAAAAAAAAAAAAAAAAAAAAAAAAAAAAAAAAAAAAAAAAAAAAAAAAAAAAAAAAAAAAAAAAAAAAAAAAAAAAAAAAAAAAAAAAAAAAAAAAAAAAAAAAAAAAAAAAAAAAAAAAAAAAAAAAAAAAAAAAAAAAAAAAAAAAAAAAAAAAAAAAAAAAAAAAAAAAAAAAAAAAAAAAAAAAAAAAAAAAAAAAAAAAAAAAAAAAAAAAAAAAAAAAAAAAAAAAAAAAAAAAAAAAAAAAAAAAAAAAAAAAAAAAAAAAAAAAAAAAAAAAAAAAAAAAAAAAAAAAAAAAAAAAAAAAAAAAAAAAAAAAAAAAAAAAAAAAAAAAAAAAAAAAAAAAAAAAAAAAAAAAAAAAAAAAAAAAAAAAAAAAAAAAAAAAAAAAAAAAAAAAAAAAAAAAAAAAAAAAAAAAAAAAAAAAAAAAAAAAAAAAAAAAAAAAAAAAAAAAAAAAAAAAAAAAAAAAAAAAAAAAAAAAAAAAAAAAAAAAAAAAAAAAAAAAAAAAAAAAAAAAAAAAAAAAAAAAAAAAAAAAAAAAAAAAAAAAAAAAAAAAAAAAAAAAAAAAAAAAAAAAAAAAAAAAAAAAAAAAAAAAAAAAAAAAAAAAAAAAAAAAAAAAAAAAAAAAAAAAAAAAAAAAAAAAAAAAAAAAAAAAAAAAAAAAAAAAAAAAAAAAAAAAAAAAAAAAAAAAAAAAAAAAAAAAAAAAAAAAAAAAAAAAAAAAAAAAAAAAAAAAAAAAAAAAAAAAAAAAAAAAAAAAAAAAAAAAAAAAAAAAAAAAAAAAAAAAAAAAAAAAAAAAAAAAAAAAAAAAAAAAAAAAAAAAAAAAAAAAAAAAAAAAAAAAAAAAAAAAAAAAAAAAAAAAAAAAAAAAAAAAAAAAAAAAAAAAAAAAAAAAAAAAAAAAAAAAAAAAAAAAAAAAAAAAAAAAAAAAAAAAAAAAAAAAAAAAAAAAAAAAAAAAAAAAAAAAAAAAAAAAAAAAAAAAAAAAAAAAAAAAAAAAAAAAAAAAAAAAAAAAAAAAAAAAAAAAAAAAAAAAAAAAAAAAAAAAAAAAAAAAAAAAAAAAAAAAAAAAAAAAAAAAAAAAAAAAAAAAAAAAAAAAAAAAAAAAAAAAAAAAAAAAAAAAAAAAAAAAAAAAAAAAAAAAAAAAAAAAAAAAAAAAAAAAAAAAAAAAAAAAAAAAAAAAAAAAAAAAAAAAAAAAAAAAAAAAAAAAAAAAAAAAAAAAAAAAAAAAAAAAAAAAAAAAAAAAAAAAAAAAAAAAAAAAAAAAAAAAAAAAAAAAAAAAAAAAAAAAAAAAAAAAAAAAAAAAAAAAAAAAAAAAAAAAAAAAAAAAAAAAAAAAAAAAAAAAAAAAAAAAAAAAAAAAAAAAAAAAAAAAAAAAAAAAAAAAAAAAAAAAAAAAAAAAAAAAAAAAAAAAAAAAAAAAAAAAAAAAAAAAAAAAAAAAAAAAAAAAAAAAAAAAAAAAAAAAAAAAAAAAAAAAAAAAAAAAAAAAAAAAAAAAAAAAAAAAAAAAAAAAAAAAAAAAAAAAAAAAAAAAAAAAAAAAAAAAAAAAAPZYQGgrgExncuzA9ww8lAMLkabGV6dQx9tv7Bxyqq+9BhRzwDvqt5znBWfLwnDqt0zkJX6AqGiHYoNG5uapH0xGv8Y=</c2pa:manifest></metadata>
  <defs>
    <radialGradient id="glare" cx="0.74" cy="0.2" r="0.46">
      <stop offset="0" stop-color="#ffffff" stop-opacity="0.95"></stop>
      <stop offset="0.42" stop-color="#ffffff" stop-opacity="0.5"></stop>
      <stop offset="1" stop-color="#ffffff" stop-opacity="0"></stop>
    </radialGradient>
    <radialGradient id="glare2" cx="0.2" cy="0.62" r="0.3">
      <stop offset="0" stop-color="#ffffff" stop-opacity="0.44"></stop>
      <stop offset="1" stop-color="#ffffff" stop-opacity="0"></stop>
    </radialGradient>
    <linearGradient id="shade" x1="0" y1="0" x2="1" y2="1">
      <stop offset="0" stop-color="#000000" stop-opacity="0.06"></stop>
      <stop offset="0.5" stop-color="#000000" stop-opacity="0"></stop>
      <stop offset="1" stop-color="#000000" stop-opacity="0.13"></stop>
    </linearGradient>
    <filter id="grain"><feTurbulence type="fractalNoise" baseFrequency="0.9" numOctaves="2"></feTurbulence><feColorMatrix type="saturate" values="0"></feColorMatrix></filter>
    <g id="ink-hand"></g>
  </defs>

  <rect width="700" height="900" fill="#D9D2C2"></rect>
  <g transform="rotate(-1.1 350 450)">
    <rect x="14" y="8" width="676" height="886" fill="#EDE7D8"></rect>
    <rect x="14" y="8" width="676" height="886" fill="url(#shade)"></rect>

    
    <g fill="#6E6858" font-family="monospace">
      <text x="52" y="62" font-size="21" letter-spacing="2">POLIKLINIKA № 7</text>
      <text x="52" y="88" font-size="15" letter-spacing="1">BAKI ş. / г. БАКУ</text>
      <text x="470" y="62" font-size="15" letter-spacing="1">RESEPT / РЕЦЕПТ</text>
      <text x="470" y="88" font-size="15" letter-spacing="1">№ 4471</text>
    </g>
    <rect x="52" y="104" width="596" height="2" fill="#8C8676"></rect>
    <rect x="52" y="110" width="596" height="1" fill="#A8A292"></rect>

    <g fill="#77715F" font-family="monospace" font-size="14" letter-spacing="1">
      <text x="52" y="146">XƏSTƏ / ПАЦИЕНТ</text>
      <text x="52" y="290">PREPARAT / ПРЕПАРАТ</text>
      <text x="52" y="378">DOZA / ДОЗИРОВКА</text>
      <text x="390" y="378">FORMA / ФОРМА</text>
      <text x="52" y="520">MIQDAR / КОЛИЧЕСТВО</text>
      <text x="52" y="590">SXEM / СХЕМА ПРИЁМА</text>
      <text x="390" y="726">HƏKIM / ВРАЧ</text>
    </g>
    <g stroke="#B4AE9C" stroke-width="1">
      <path d="M52 222 H648"></path><path d="M52 372 H648"></path><path d="M52 448 H648"></path>
      <path d="M52 512 H648"></path><path d="M52 582 H648"></path><path d="M52 690 H648"></path>
    </g>

    
    <g fill="none" stroke="#293453" stroke-width="3.4" stroke-linecap="round" stroke-linejoin="round">
      
      <path d="M60 200 q10-30 20-4 t16 2 q12-26 22-2 t18 0 q8-20 20-2 M172 196 q14-24 24 0 t20-2 q10 16 24 2"></path>
      <path d="M244 198 q16-28 26-2 t22 0 q14-22 26 0 t20 2 q10-16 22-2 M368 194 q18-22 28 2 t24-4"></path>
      
      <g stroke-width="4.4">
        <path d="M58 348 q8-44 22-38 q10 4 2 40 q-2 12 10 4 q14-12 18-34 q2-12 10-2 q6 8-2 32 q-2 12 10 6 q16-10 22-30"></path>
        <path d="M172 314 q-14 30-2 38 q12 8 22-6 q10-16 2-30 q-6-10-16 2 M198 300 q8 32 2 52"></path>
        <path d="M232 348 q6-40 18-36 q10 4 4 36 q10-30 24-32 q12 0 4 34 q12-26 26-28 q10 0 4 30"></path>
        <path d="M324 302 q-10 40 0 50 q10 8 20-4 M340 322 h26"></path>
        <path d="M382 348 q4-42 18-38 q12 4 2 38 q14-24 28-24 q10 2 2 26 q-2 10 10 4"></path>
      </g>
      
      <g stroke-width="4.2">
        <path d="M64 434 v-38 l-11 11"></path>
        <path d="M90 402 q16-13 27 3 q9 16-9 22 q-14 6-17 7 h29"></path>
        <path d="M142 398 q-16 6-8 20 q8 12 20 2 q10-10-2-20 q-12-8-18 4 M136 428 q14 12 26 0"></path>
        <path d="M186 434 q4-40 14-36 q10 4 2 32 q-2 10 10 4 q14-10 18-28"></path>
        <path d="M236 400 q10 30 4 38 q-4 6-12-2"></path>
      </g>
      
      <path d="M400 434 q10-26 20-2 t16 0 q12-24 22-2 t18 2 q8-18 20-2 M494 430 q14-22 24 2 t20-2 q10 14 24 2"></path>
      
      <g stroke-width="4.6" stroke="#2B3550">
        <path d="M62 502 q20-34 30-4 q8 24-8 20 q-18-4-4-20 q12-14 26 4"></path>
        <path d="M100 498 q18-28 24 4 q4 22-12 16"></path>
        <path d="M64 486 q40 22 70 6"></path>
      </g>
      <g stroke="#2B3550" stroke-width="10" opacity="0.28"><path d="M58 496 q36 16 72 0"></path></g>
      
      <path d="M60 664 q12-30 22-4 t18 2 q12-26 22-2 t18 0 q10-18 22-2 M164 660 q14-24 24 0 t20-2 q10 16 24 2 M232 662 q16-26 26 0 t22-2"></path>
      <path d="M300 660 q18-26 28 0 t24-2 q12 14 26 2 M380 658 q16-22 26 2 t22-4 q12 16 26 2 M456 660 q18-24 28 0 t22-2"></path>
      <path d="M60 686 q14-24 24 0 t20-2 q10 16 24 2 M132 684 q16-22 26 2 t22-4"></path>
      
      <g stroke-width="3.8">
        <path d="M400 800 q30-70 44-28 q-14 44 14 22 q26-22 34 4 q-22 26 6 12 q34-18 52-30"></path>
        <path d="M392 786 q60 26 130 6"></path>
      </g>
    </g>

    
    <g transform="rotate(-9 540 786)" stroke="#6A5A88" fill="none" opacity="0.52">
      <rect x="464" y="716" width="150" height="150" stroke-width="4"></rect>
      <rect x="476" y="728" width="126" height="126" stroke-width="2"></rect>
      <g stroke-width="2.4">
        <path d="M492 770 h106"></path><path d="M492 790 h106"></path><path d="M492 810 h84"></path>
      </g>
      <text x="492" y="756" font-family="monospace" font-size="14" fill="#6A5A88" stroke="none" letter-spacing="1">MÖHÜR</text>
    </g>

    
    <rect x="14" y="8" width="676" height="886" fill="url(#glare)"></rect>
    <rect x="14" y="8" width="676" height="886" fill="url(#glare2)"></rect>
    <rect x="14" y="8" width="676" height="886" filter="url(#grain)" opacity="0.07"></rect>
  </g>
</svg>